<?xml version="1.0" encoding="UTF-8"?>
<svg xmlns="http://www.w3.org/2000/svg" xmlns:xlink="http://www.w3.org/1999/xlink" viewBox="0 0 240 240" width="240px" height="240px">
<g id="surface22665146">
<path style=" stroke:none;fill-rule:nonzero;fill:rgb(74.117649%,74.117649%,74.117649%);fill-opacity:1;" d="M 119.664062 10 L 15 46.425781 L 31.539062 182.039062 L 119.773438 230 L 208.464844 181.390625 L 225 45.78125 Z M 119.664062 10 "/>
<path style=" stroke:none;fill-rule:nonzero;fill:rgb(71.764708%,10.980392%,10.980392%);fill-opacity:1;" d="M 214.089844 52.636719 L 120 20.675781 L 120 218.476562 L 199.160156 175.085938 Z M 214.089844 52.636719 "/>
<path style=" stroke:none;fill-rule:nonzero;fill:rgb(86.666667%,17.254902%,0%);fill-opacity:1;" d="M 119.703125 20.574219 L 25.90625 53.21875 L 40.839844 175.714844 L 119.753906 218.605469 L 120 218.476562 L 120 20.675781 Z M 119.703125 20.574219 "/>
<path style=" stroke:none;fill-rule:nonzero;fill:rgb(74.117649%,74.117649%,74.117649%);fill-opacity:1;" d="M 120 29.980469 L 120 77.519531 L 162.890625 170 L 184.933594 170 Z M 120 29.980469 "/>
<path style=" stroke:none;fill-rule:nonzero;fill:rgb(93.333334%,93.333334%,93.333334%);fill-opacity:1;" d="M 55.066406 170 L 77.109375 170 L 120 77.519531 L 120 29.980469 Z M 55.066406 170 "/>
<path style=" stroke:none;fill-rule:nonzero;fill:rgb(74.117649%,74.117649%,74.117649%);fill-opacity:1;" d="M 120 120 L 150 120 L 150 140 L 120 140 Z M 120 120 "/>
<path style=" stroke:none;fill-rule:nonzero;fill:rgb(93.333334%,93.333334%,93.333334%);fill-opacity:1;" d="M 90 120 L 120 120 L 120 140 L 90 140 Z M 90 120 "/>
</g>
</svg>
